<?xml version="1.0" encoding="utf-8"?>
<!-- Generator: Adobe Adobe Illustrator 24.2.0, SVG Export Plug-In . SVG Version: 6.00 Build 0)  -->
<svg version="1.1" xmlns="http://www.w3.org/2000/svg" xmlns:xlink="http://www.w3.org/1999/xlink" x="0px" y="0px" width="1080px"
	 height="1080px" viewBox="0 0 1080 1080" style="enable-background:new 0 0 1080 1080;" xml:space="preserve">
<style type="text/css">
	.st0{fill:#2A2E35;}
	.st1{fill:#0B1F33;}
	.st2{fill:#39FF14;}
	.st3{fill:#F0F0F0;}
	.st4{fill:#FFFFFF;}
	.st5{fill:none;stroke:#0B1F33;stroke-miterlimit:10;}
	.st6{fill:none;stroke:#39FF14;stroke-miterlimit:10;}
	.st7{fill:none;stroke:#FFFFFF;stroke-miterlimit:10;}
	.st8{display:none;fill:none;stroke:#FFFFFF;stroke-miterlimit:10;}
	.st9{fill:#FFFFFF;stroke:#39FF14;stroke-miterlimit:10;}
</style>
<g id="Colores">
</g>
<g id="tipografía">
</g>
<g id="Redes_Sociales">
	<g id="Isotipo">
		<rect x="-25.6" y="-11.97" class="st4" width="1122.17" height="1106"/>
		<g>
			<g>
				<path class="st2" d="M734.51,715.67c63.17,6.2,103.21,15.37,103.21,25.6c0,18.68-133.29,33.83-297.72,33.83
					s-297.72-15.15-297.72-33.83c0-10.23,40.03-19.39,103.21-25.6c-127.86,7.63-214.7,22.54-214.7,39.69
					c0,24.91,183.21,45.11,409.21,45.11c226,0,409.21-20.19,409.21-45.11C949.21,738.21,862.37,723.3,734.51,715.67z"/>
			</g>
			<g>
				<path class="st2" d="M663.18,715.09c14.65,2.59,23.18,5.67,23.18,8.98c0,9.18-65.53,16.63-146.36,16.63
					s-146.36-7.44-146.36-16.63c0-3.31,8.53-6.39,23.18-8.98c-47.43,4.22-77.99,10.81-77.99,18.23c0,12.74,90.07,23.07,201.17,23.07
					s201.17-10.33,201.17-23.07C741.17,725.91,710.61,719.31,663.18,715.09z"/>
			</g>
			<path class="st2" d="M687.76,382.74l2.66,363.5H567.03l-2.66-363.5H316.28v-98.57h619.56v98.57H687.76z"/>
		</g>
		<g>
			<path class="st1" d="M161.8,370.32l0-6.15c0-21.09,17.1-38.2,38.2-38.2h387.83c21.09,0,38.2,17.1,38.2,38.2v6.15
				c0,21.09-17.1,38.2-38.2,38.2H200C178.9,408.51,161.8,391.41,161.8,370.32z"/>
			<path class="st1" d="M161.8,676.9l0-6.15c0-21.09,17.1-38.2,38.2-38.2h387.83c21.09,0,38.2,17.1,38.2,38.2v6.15
				c0,21.09-17.1,38.2-38.2,38.2H200C178.9,715.09,161.8,697.99,161.8,676.9z"/>
			<path class="st1" d="M154.07,509.34v-5.89c0-20.21,16.39-36.6,36.6-36.6h256.55c20.21,0,36.6,16.39,36.6,36.6v5.89
				c0,20.21-16.39,36.6-36.6,36.6H190.67C170.45,545.95,154.07,529.56,154.07,509.34z"/>
			<path class="st1" d="M509.4,509.34v-5.89c0-20.22,16.39-36.6,36.6-36.6h43.46c20.22,0,36.6,16.39,36.6,36.6v5.89
				c0,20.22-16.39,36.6-36.6,36.6H546C525.79,545.95,509.4,529.56,509.4,509.34z"/>
		</g>
	</g>
</g>
</svg>
