<?xml version="1.0" encoding="utf-8"?>
<!-- Generator: Adobe Adobe Illustrator 24.2.0, SVG Export Plug-In . SVG Version: 6.00 Build 0)  -->
<svg version="1.1" xmlns="http://www.w3.org/2000/svg" xmlns:xlink="http://www.w3.org/1999/xlink" x="0px" y="0px" width="1080px"
	 height="1080px" viewBox="0 0 1080 1080" style="enable-background:new 0 0 1080 1080;" xml:space="preserve">
<style type="text/css">
	.st0{fill:#2A2E35;}
	.st1{fill:#0B1F33;}
	.st2{fill:#39FF14;}
	.st3{fill:#F0F0F0;}
	.st4{fill:#FFFFFF;}
	.st5{fill:none;stroke:#0B1F33;stroke-miterlimit:10;}
	.st6{fill:none;stroke:#39FF14;stroke-miterlimit:10;}
	.st7{fill:none;stroke:#FFFFFF;stroke-miterlimit:10;}
	.st8{display:none;fill:none;stroke:#FFFFFF;stroke-miterlimit:10;}
	.st9{fill:#FFFFFF;stroke:#39FF14;stroke-miterlimit:10;}
</style>
<g id="Colores">
</g>
<g id="tipografía">
</g>
<g id="Redes_Sociales">
	<g id="Isotipo_principal">
		<rect x="-25.6" y="-11.97" class="st4" width="1122.17" height="1106"/>
		<path class="st1" d="M356.09,402.58l-34.74-34.74c-33.45,47-51.5,103.07-51.5,161.97c0.03,61.65,19.77,120.25,56.39,168.58
			l34.54-34.54c-27.73-38.91-42.64-85.35-42.61-134.04C318.14,483.9,331.4,440.03,356.09,402.58z"/>
		<path class="st1" d="M734.14,670.56l34.38,34.38c39.86-49.52,61.51-110.64,61.48-175.12c0.03-61.65-19.77-120.32-56.39-168.65
			l-34.54,34.54c27.7,38.94,42.64,85.35,42.67,134.1C781.71,581.34,765.01,630.36,734.14,670.56z"/>
		<path class="st1" d="M374.8,311.22l34.38,34.38c40.23-30.84,89.22-47.56,140.78-47.57c48.72,0,95.13,14.94,134.04,42.67
			l34.58-34.58c-48.36-36.59-106.97-56.39-168.65-56.39C485.44,249.7,424.32,271.35,374.8,311.22z"/>
		<path class="st1" d="M549.96,761.59c-48.79,0-95.2-14.94-134.14-42.64l-34.54,34.54c48.36,36.59,107.03,56.39,168.65,56.39
			c58.84,0,114.93-18.02,161.94-51.47l-34.74-34.74C639.67,748.37,595.84,761.59,549.96,761.59z"/>
		<path class="st1" d="M373.77,731.96l0.52-0.52l13.17-13.17c8.32-8.32,8.07-21.7-0.26-30.01c-0.05-0.05-0.1-0.1-0.15-0.15
			c-0.06-0.06-0.13-0.13-0.19-0.19c-8.31-8.34-21.7-8.6-30.02-0.28l-13.14,13.14l-0.55,0.55l-43.07,43.07
			c-8.22,8.22-8.22,21.54,0,29.76l0.89,0.89c8.22,8.22,21.55,8.22,29.77-0.01l42.62-42.66L373.77,731.96z"/>
		<path class="st1" d="M780.84,324.88l0.52-0.52l13.17-13.17c8.32-8.32,8.07-21.7-0.26-30.01c-0.05-0.05-0.1-0.1-0.15-0.15
			c-0.06-0.06-0.13-0.13-0.19-0.19c-8.31-8.34-21.7-8.6-30.02-0.28l-13.14,13.14l-0.55,0.55l-43.07,43.07
			c-8.22,8.22-8.22,21.54,0,29.76l0.89,0.89c8.22,8.22,21.55,8.22,29.77-0.01l42.62-42.66L780.84,324.88z"/>
		<g>
			<path class="st2" d="M611.97,472.67l1.26,172.66h-58.61l-1.26-172.66H435.52v-46.82h294.29v46.82H611.97z"/>
			<g>
				<path class="st1" d="M362.14,465.69v-0.76c0-10.62,8.61-19.22,19.22-19.22l182.06,0c10.62,0,19.22,8.61,19.22,19.22v0.76
					c0,10.62-8.61,19.22-19.22,19.22l-182.06,0C370.75,484.92,362.14,476.31,362.14,465.69z"/>
				<path class="st1" d="M362.14,611.32v-0.76c0-10.62,8.61-19.22,19.22-19.22l182.06,0c10.62,0,19.22,8.61,19.22,19.22v0.76
					c0,10.62-8.61,19.22-19.22,19.22H381.36C370.75,630.54,362.14,621.94,362.14,611.32z"/>
				<path class="st1" d="M358.47,531.41L358.47,531.41c0-10.38,8.41-18.79,18.79-18.79h119.06c10.38,0,18.79,8.41,18.79,18.79v0
					c0,10.38-8.41,18.79-18.79,18.79H377.25C366.88,550.2,358.47,541.79,358.47,531.41z"/>
				<path class="st1" d="M527.25,531.41L527.25,531.41c0-10.38,8.41-18.79,18.79-18.79h17.84c10.38,0,18.79,8.41,18.79,18.79v0
					c0,10.38-8.41,18.79-18.79,18.79h-17.84C535.66,550.2,527.25,541.79,527.25,531.41z"/>
			</g>
		</g>
		<g>
			<path class="st1" d="M386.04,342.29l-21.52-21.52l-0.46-0.46l-9.11-9.11l26.34-25.93L276.04,178.38l-86.61,85.27l105.24,106.89
				l24.79-24.41l10.38,10.37l0.53,0.53l21.06,21.06c6.65,6.65,17.6,6.44,23.79-0.64c3.46-3.96,7.06-7.81,10.81-11.56
				C392.53,359.4,392.53,348.78,386.04,342.29z M292.93,343.78l-76.78-77.98l61.62-60.68l76.78,77.98L292.93,343.78z"/>
		</g>
		<g>
			<g>
				<polygon class="st1" points="269.62,267.95 264.75,263 255.06,253.16 236.49,271.45 246.18,281.29 251.05,286.24 256.04,291.31 
					274.62,273.02 				"/>
			</g>
			<g>
				<polygon class="st1" points="297.67,240.33 292.8,235.39 282.6,225.03 264.03,243.32 274.23,253.68 279.09,258.62 284.09,263.7 
					302.67,245.41 				"/>
			</g>
		</g>
		<g>
			<g>
				<polygon class="st1" points="302.17,301 297.3,296.06 287.61,286.22 269.03,304.51 278.72,314.35 283.59,319.29 288.59,324.37 
					307.16,306.08 				"/>
			</g>
			<g>
				<polygon class="st1" points="330.47,273.64 325.6,268.7 315.4,258.34 296.83,276.63 307.03,286.99 311.89,291.93 316.89,297.01 
					335.47,278.72 				"/>
			</g>
		</g>
		<g>
			<path class="st1" d="M798.47,704.93l-25.1,24.72l-13.97-13.97l-0.46-0.46l-21.52-21.52c-6.49-6.49-17.11-6.49-23.6,0v0
				c-3.75,3.75-7.61,7.35-11.56,10.81c-7.08,6.19-7.29,17.14-0.64,23.79l21.06,21.06l0.53,0.53l14.68,14.7l-26.02,25.62
				L817.1,897.09l86.61-85.27L798.47,704.93z M815.36,870.34l-76.78-77.98l61.62-60.68l76.78,77.98L815.36,870.34z"/>
		</g>
		<g>
			<g>
				<polygon class="st1" points="792.05,794.51 787.18,789.56 777.49,779.72 758.92,798.01 768.61,807.85 773.47,812.79 
					778.47,817.87 797.05,799.58 				"/>
			</g>
			<g>
				<polygon class="st1" points="820.1,766.89 815.23,761.94 805.03,751.58 786.45,769.88 796.65,780.23 801.52,785.18 
					806.52,790.25 825.1,771.97 				"/>
			</g>
		</g>
		<g>
			<g>
				<polygon class="st1" points="824.59,827.56 819.73,822.61 810.04,812.77 791.46,831.06 801.15,840.9 806.02,845.85 
					811.02,850.92 829.59,832.63 				"/>
			</g>
			<g>
				<polygon class="st1" points="852.9,800.2 848.03,795.26 837.83,784.9 819.25,803.19 829.45,813.55 834.32,818.49 839.32,823.57 
					857.9,805.28 				"/>
			</g>
		</g>
	</g>
</g>
</svg>
